# xmcd
#
# Track frame offsets:
#	150
#	32055
#	69240
#	89957
#	106147
#	137752
#	162492
#
# Disc length: 2424 seconds
#
# Revision: 3
# Processed by: cddbd v1.4PL0 Copyright (c) Steve Scherf et al.
# Submitted via: EasyCDDAExtractor 5.0.4.1
#
DISCID=5d097607
DTITLE=Francesco Guccini - Radici
DYEAR=1972
DGENRE=Cantautori
TTITLE0=Radici
TTITLE1=La locomotiva
TTITLE2=Piccola città
TTITLE3=Incontro
TTITLE4=Canzone dei dodici mesi
TTITLE5=Canzone della bambina portoghese
TTITLE6=Il vecchio e il bambino
EXTD=YEAR: 1972 ID3G: 80
EXTT0=
EXTT1=
EXTT2=
EXTT3=
EXTT4=
EXTT5=
EXTT6=
PLAYORDER=
